<svg width="492" height="492" viewBox="0 0 492 492" fill="none" xmlns="http://www.w3.org/2000/svg">
    <rect x="0.501221" y="0.811523" width="491.166" height="491.166" fill="#1D1C1C" />
    <path
        d="M86.0527 202.961H98.8076V243.752L134.786 202.961H150.188L117.338 240.143L152.354 288.394H137.554L109.036 249.288L98.8076 260.839V288.394H86.0527V202.961Z"
        fill="#DCDBCE" />
    <path
        d="M191.097 290.32C166.911 290.32 151.75 273.113 151.75 245.798C151.75 218.243 166.911 201.036 191.097 201.036C215.404 201.036 230.565 218.243 230.565 245.798C230.565 273.113 215.404 290.32 191.097 290.32ZM164.986 245.798C164.986 266.735 174.251 278.527 191.097 278.527C208.063 278.527 217.329 266.735 217.329 245.798C217.329 224.74 208.063 212.828 191.097 212.828C174.251 212.828 164.986 224.74 164.986 245.798Z"
        fill="#DCDBCE" />
    <path
        d="M240.586 202.961H258.034L283.544 273.594L309.053 202.961H326.501V288.394H313.746V226.666L290.884 288.394H276.203L253.341 226.666V288.394H240.586V202.961Z"
        fill="#DCDBCE" />
    <path
        d="M406.964 258.312C406.964 277.926 394.209 290.32 373.874 290.32C353.538 290.32 340.783 277.926 340.783 258.312V202.841H353.538V258.312C353.538 271.308 360.878 278.527 373.874 278.527C386.869 278.527 394.209 271.308 394.209 258.312V202.841H406.964V258.312Z"
        fill="#DCDBCE" />
</svg>