<svg width="492" height="492" viewBox="0 0 492 492" fill="none" xmlns="http://www.w3.org/2000/svg">
    <rect x="0.0499268" y="0.254395" width="491.166" height="491.166" fill="#1D1C1C" />
    <path
        d="M61.0669 245.837C61.0669 207.2 92.3887 175.878 131.026 175.878H360.24C398.877 175.878 430.199 207.2 430.199 245.837C430.199 284.475 398.877 315.797 360.24 315.797H131.026C92.3886 315.797 61.0669 284.475 61.0669 245.837Z"
        fill="#FF6B00" />
    <path
        d="M144.807 218.835H152.87V244.62L175.613 218.835H185.349L164.583 242.338L186.718 272.84H177.362L159.335 248.119L152.87 255.421V272.84H144.807V218.835Z"
        fill="#1D1C1C" />
    <path
        d="M212.73 274.057C197.441 274.057 187.857 263.18 187.857 245.913C187.857 228.495 197.441 217.618 212.73 217.618C228.095 217.618 237.678 228.495 237.678 245.913C237.678 263.18 228.095 274.057 212.73 274.057ZM196.224 245.913C196.224 259.148 202.081 266.603 212.73 266.603C223.455 266.603 229.312 259.148 229.312 245.913C229.312 232.602 223.455 225.072 212.73 225.072C202.081 225.072 196.224 232.602 196.224 245.913Z"
        fill="#1D1C1C" />
    <path
        d="M245.534 218.835H256.564L272.689 263.484L288.814 218.835H299.844V272.84H291.781V233.819L277.329 272.84H268.049L253.597 233.819V272.84H245.534V218.835Z"
        fill="#1D1C1C" />
    <path
        d="M352.228 253.824C352.228 266.222 344.165 274.057 331.311 274.057C318.456 274.057 310.393 266.222 310.393 253.824V218.759H318.456V253.824C318.456 262.039 323.096 266.603 331.311 266.603C339.525 266.603 344.165 262.039 344.165 253.824V218.759H352.228V253.824Z"
        fill="#1D1C1C" />
</svg>